<?xml version="1.0" encoding="UTF-8"?>
<svg id="Layer_1" data-name="Layer 1" xmlns="http://www.w3.org/2000/svg" viewBox="0 0 53.18 52.42">
  <defs>
    <style>
      .cls-1 {
        fill: #502813;
      }
    </style>
  </defs>
  <path class="cls-1" d="m49.14,2.53c.72.31,1.33.7,1.46,1.58.13.82-.02,1.48-.71,2.05-.71.59-1.32,1.29-1.98,1.94-1.21,1.2-2.43,2.4-3.63,3.62-.52.53-.99,1.1-1.53,1.61-.19.17-.52.21-.79.26-1.1.19-1.56.05-2.2-.91-.5-.75-.4-1.79.18-2.42.3-.32.66-.59.98-.9,2.08-2.07,4.15-4.15,6.22-6.22.21-.21.44-.41.66-.61.45,0,.89,0,1.34,0Z"/>
  <path class="cls-1" d="m2.77,47.84c.73-1.3,1.91-2.2,2.92-3.24,1.49-1.53,3.04-3,4.51-4.55.76-.8,1.71-.92,2.58-.55.65.28,1,.81,1,1.53,0,.21,0,.41,0,.62,0,.54-.3.86-.69,1.22-1.02.93-1.95,1.97-2.92,2.96-1.35,1.37-2.71,2.75-4.08,4.1-.94.92-2.63.55-3.15-.66-.04-.1-.11-.19-.17-.28,0-.38,0-.77,0-1.15Z"/>
  <path class="cls-1" d="m27.87,2.53c.43.28.89.53,1.28.85.35.29.63.66.93,1,.16.18.31.36.43.56.1.16.17.35.19.54.05.55.07,1.11.1,1.67,0,.08,0,.18-.04.25-.25.58-.5,1.15-.78,1.78-.17.1-.46.24-.7.43-1.25,1-3.13,1.36-4.62.34-.4-.28-.81-.56-1.17-.88-.16-.14-.18-.41-.31-.6-.55-.8-.57-1.69-.47-2.6,0-.02.01-.03,0-.05-.21-.69.33-1.07.65-1.53.53-.73,1.18-1.32,2.07-1.61.06-.02.09-.11.14-.17.77,0,1.53,0,2.3,0Z"/>
  <path class="cls-1" d="m4.21,2.53c-.66.3-1.14.78-1.44,1.44v-1.44h1.44Z"/>
  <path class="cls-1" d="m32.26,18.14c-.16-.09-.32-.18-.53-.3,0,.19-.02.33-.02.46,0,9.99-.01,19.98.01,29.97,0,1.43-1.11,2.2-2.19,2.17-.77-.02-1.84-.89-1.84-1.92,0-4.82,0-9.64,0-14.46,0-.17,0-.35,0-.56h-1.94v.55c0,4.68,0,9.35,0,14.03,0,.33-.03.67-.11.99-.15.63-.92,1.27-1.59,1.36-.85.11-1.52-.21-2.05-.85-.04-.04-.08-.13-.06-.17.15-.34-.1-.5-.29-.7.02-.07.04-.13.06-.2,0-.13.01-.25.01-.38,0-9.93,0-19.85,0-29.78,0-.13,0-.26-.01-.38-.06,0-.12-.01-.18-.02-1.2.55-2.1,1.44-2.75,2.58-.49.85-.78,1.77-1.01,2.73-.1.42-.03.81-.05,1.21-.04,1-.55,1.63-1.47,2-.54.21-.84-.1-1.26-.21-.55-.14-.8-.46-1.06-.84-.13-.19-.23-.43-.23-.66-.02-.9-.15-1.82.38-2.65.02-.03.05-.05.05-.08.03-1.15.4-2.31,1.07-3.34.33-.5.67-1,1-1.5.09-.1.17-.2.26-.29.99-1.13,2.18-2,3.46-2.77.42-.26.83-.57,1.29-.74.64-.23,1.35-.27,1.98-.52.83-.33,1.67-.24,2.51-.27,1.11-.04,2.23.08,3.35.07.96,0,1.77.46,2.66.67.09.02.19.02.28.03.13.09.26.18.38.27.48.26.96.51,1.43.77.1.05.19.11.29.16.09.04.18.08.28.13.03.02.07.05.1.07.9.78,1.81,1.56,2.71,2.33,0,0,.04,0,.04,0,.41.74.85,1.48,1.24,2.23.24.47.41.96.61,1.45.13.33.43.71.35.98-.12.4.13.66.14.99,0,.18.12.35.18.52.04.1.1.21.09.31-.05.4-.13.79-.18,1.19-.1.73-.56,1.25-1.28,1.43-.03,0-.08,0-.09.02-.72.97-1.32.12-1.85-.2-.85-.51-1.02-1.8-.67-2.42-.24-.71-.44-1.37-.68-2.02-.48-1.32-1.28-2.39-2.47-3.15-.09-.06-.17-.14-.25-.22-.03-.02-.07-.05-.1-.07Z"/>
  <path class="cls-1" d="m41.63,39.32c.58-.09,1.06.22,1.48.63,2.36,2.38,4.72,4.75,7.06,7.15.6.62.65,1.4.33,2.17-.3.72-.91,1.06-1.67,1.17-.78.11-1.35-.3-1.85-.79-2.34-2.35-4.66-4.72-6.99-7.08-.66-.66-.51-1.41-.23-2.16.28-.73.93-1.09,1.87-1.09Z"/>
  <path class="cls-1" d="m32.37,13.64c-.13-.09-.26-.18-.38-.27.13.09.26.18.38.27Z"/>
  <path class="cls-1" d="m16.47,16.89c-.09.1-.17.2-.26.29.09-.1.17-.2.26-.29Z"/>
  <path class="cls-1" d="m34.1,14.57c-.1-.05-.19-.11-.29-.16.1.05.19.11.29.16Z"/>
  <path class="cls-1" d="m21.71,48.51c-.02.07-.04.13-.06.2.02-.07.04-.13.06-.2Z"/>
  <path class="cls-1" d="m37.23,17.09s-.04,0-.04,0c.01,0,.03,0,.04,0Z"/>
  <path class="cls-1" d="m32.26,18.14s.07.05.1.07c-.03-.02-.07-.05-.1-.07Z"/>
</svg>