<?xml version="1.0" encoding="UTF-8"?>
<svg id="Layer_1" data-name="Layer 1" xmlns="http://www.w3.org/2000/svg" viewBox="0 0 53.69 45.85">
  <defs>
    <style>
      .cls-1 {
        fill: #502813;
      }
    </style>
  </defs>
  <g id="Layer_2" data-name="Layer 2">
    <g id="Icons">
      <path class="cls-1" d="m47.81,18.87v-5c0-6.1-4.9-11-11-11h-17c-6.1,0-11,4.9-11,11v5h-1c-2.2,0-4,1.8-4,4h0v10c0,2.2,1.8,4,4,4h0v3c0,2.2,1.8,4,4,4s4-1.8,4-4v-3h24v3c0,2.2,1.8,4,4,4s4-1.8,4-4v-3c2.2,0,4-1.8,4-4h0v-10c0-2.2-1.8-4-4-4h0ZM14.81,13.87c0-2.8,2.3-5,5-5h17c2.8,0,5,2.2,5,5v5H14.81v-5Zm-2,17c-1.7,0-3-1.3-3-3s1.3-3,3-3,3,1.3,3,3-1.3,3-3,3h0Zm30-6c1.7,0,3,1.3,3,3s-1.3,3-3,3-3-1.3-3-3,1.3-3,3-3h0Z"/>
    </g>
  </g>
</svg>