<?xml version="1.0" encoding="UTF-8"?>
<svg id="Layer_1" data-name="Layer 1" xmlns="http://www.w3.org/2000/svg" viewBox="0 0 42.51 49.16">
  <defs>
    <style>
      .cls-1 {
        fill: #502813;
      }
    </style>
  </defs>
  <g id="Layer_2" data-name="Layer 2">
    <g id="Icons">
      <path class="cls-1" d="m21.67,1.22c-.2-.2-.5-.3-.8-.1l-.1.1c-2.6,3.3-16.5,22.3-16.5,30.8,0,9.4,7.6,17,17,17s17-7.6,17-17c0-8.5-13.9-27.5-16.6-30.8Zm-.4,42.8c-4.4,0-8-3.6-8-8,0-4,6.6-12.4,7.8-13.9.1-.1.2-.1.4,0h0c1.2,1.5,7.8,9.9,7.8,13.9,0,4.4-3.6,8-8,8Z"/>
    </g>
  </g>
</svg>