<?xml version="1.0" encoding="UTF-8"?>
<svg id="Layer_1" data-name="Layer 1" xmlns="http://www.w3.org/2000/svg" viewBox="0 0 48 48.05">
  <defs>
    <style>
      .cls-1 {
        fill: #502813;
      }
    </style>
  </defs>
  <g id="Layer_2" data-name="Layer 2">
    <g id="Icons">
      <path class="cls-1" d="m47.8,11.97L33.2.08c-.1-.1-.2-.1-.3,0l-14.7,11.9c-.1.1-.2.2-.2.4v17.7c1.2.2,2.3.5,3.3,1.1.8.6,1.7.8,2.7.8s1.9-.2,2.7-.8c1.4-.8,3-1.3,4.6-1.2,1.6,0,3.2.4,4.6,1.2,1.7,1,3.8,1,5.4,0,1.4-.8,3-1.3,4.6-1.2.7,0,1.3.1,2,.2V12.37c.1-.2,0-.3-.1-.4Z"/>
      <path class="cls-1" d="m46,41.97c-1.6,0-3.2.4-4.6,1.2-1.7,1-3.8,1-5.4,0-1.4-.8-3-1.3-4.6-1.2-1.6,0-3.2.4-4.6,1.2-.9.6-1.8.8-2.8.8s-1.9-.2-2.7-.8c-1.4-.8-3-1.3-4.6-1.2-1.6,0-3.2.4-4.6,1.2-.8.5-1.8.8-2.7.8-1,0-1.9-.2-2.7-.8-1.5-.8-3.1-1.2-4.7-1.2-1.1,0-2,.9-2,2s.9,2,2,2c1,0,1.9.2,2.7.8,1.4.8,3,1.3,4.6,1.2,1.6,0,3.2-.4,4.6-1.2.8-.5,1.8-.8,2.7-.8,1,0,1.9.2,2.7.8,1.4.8,3,1.3,4.6,1.2,1.6,0,3.2-.4,4.6-1.2,1.7-1,3.8-1,5.4,0,2.9,1.7,6.4,1.7,9.2,0,1-.6,1.9-.8,2.9-.8,1.1,0,2-.9,2-2s-.9-2-2-2Z"/>
      <path class="cls-1" d="m46,33.97c-1.6,0-3.2.4-4.6,1.2-1.7,1-3.8,1-5.4,0-1.4-.8-3-1.3-4.6-1.2-1.6,0-3.2.4-4.6,1.2-.9.6-1.8.8-2.8.8s-1.9-.2-2.7-.8c-1.4-.8-3-1.3-4.6-1.2-1.6,0-3.2.4-4.6,1.2-.8.5-1.7.8-2.7.8s-1.9-.2-2.7-.8c-1.5-.8-3.1-1.2-4.7-1.2-1.1,0-2,.9-2,2s.9,2,2,2c1,0,1.9.2,2.7.8,1.4.8,3,1.3,4.6,1.2,1.6,0,3.2-.4,4.6-1.2.8-.5,1.7-.8,2.7-.8s1.9.2,2.7.8c1.4.8,3,1.3,4.6,1.2,1.6,0,3.2-.4,4.6-1.2,1.7-1,3.8-1,5.4,0,2.9,1.7,6.4,1.7,9.3,0,.9-.6,1.8-.8,2.8-.8,1.1,0,2-.9,2-2s-.9-2-2-2Z"/>
    </g>
  </g>
</svg>