<?xml version="1.0" encoding="UTF-8"?>
<svg id="Layer_1" data-name="Layer 1" xmlns="http://www.w3.org/2000/svg" viewBox="0 0 51.54 50.78">
  <defs>
    <style>
      .cls-1 {
        fill: #754322;
      }

      .cls-2 {
        fill: #502813;
      }
    </style>
  </defs>
  <path class="cls-2" d="m5.16,25.25c-.07-.24-.14-.48-.22-.71-.01-.07-.02-.14-.04-.2-.05.02-.09.05-.14.07-.07-.17-.13-.34-.2-.51.01-.03.02-.06,0-.09.02-.05.04-.09.06-.14-.05.02-.11.04-.16.07-.09-.26-.19-.53-.28-.79.02-.05.04-.09.06-.14-.05.02-.11.04-.16.06-.07-.17-.13-.34-.2-.51.01-.03.02-.06,0-.09.02-.05.04-.09.06-.14-.05.02-.11.04-.16.07-.19-.46-.39-.92-.58-1.38.01-.03.02-.06,0-.09l.06-.13c-.05.02-.11.04-.16.06-.19-.46-.39-.92-.58-1.37.01-.03.02-.06,0-.09.02-.04.04-.09.06-.13-.05.02-.11.04-.16.06-.7-1.69-.66-3.36.12-5.01.51-.12.65-.41.45-.87.1-.15.2-.31.31-.46.11,0,.21,0,.32-.01-.01-.13-.02-.25-.03-.38.31-.3.63-.59.94-.89.4.17.88-.16.97-.66.38-.27.71-.67,1.26-.56.09-.09.19-.18.28-.27.4,0,.8-.03,1.2-.02.82.03,1.63.07,2.44.11.14.32.2.34.38.1.38.07.79-.22,1.15.1.12.44.44.56.79.29.09.02.18.04.26.06.16.44.64.23.9.44.02-.04.04-.09.05-.13.13.03.26.07.38.1.06.11.12.23.17.34.07-.06.14-.11.21-.17.16.07.32.14.48.21.12.5.4.64.87.45.13.05.25.09.38.14,0,.33.07.58.48.34.13.04.26.09.38.13.06.05.13.1.19.16.54.45,1.08.9,1.62,1.35.07.06.14.12.21.18-.04.11-.14.27-.11.32.22.26.47.51.73.73.05.04.21-.06.32-.09.33.43.62.89,1,1.28.36.37.8.66,1.04.85.34-.26.82-.62,1.29-.98.14,0,.3.04.42-.02.22-.1.32-.26-.02-.36.1-.09.2-.19.3-.28.14-.01.29-.02.43-.04-.05-.05-.1-.11-.16-.16.2-.15.39-.3.59-.45.1.03.27.13.3.09.14-.15.24-.34.36-.52.21-.1.41-.2.62-.29.63.04.81-.06.92-.54,1.14-.36,2.26-.8,3.42-1.05.92-.2,1.89-.11,2.83-.22.78-.09,1.49.22,2.25.23.24,0,.53-.14.7.18.06.09.11.25.17.25.1,0,.21-.1.31-.15.23.01.46,0,.68.04.14.03.26.14.38.22.04.41,1.07.88,1.42.66,0,0,0-.03.01-.04.86.44,1.72.88,2.59,1.32.02.34.13.51.48.28.03.01.06.03.09.04.04.45.05.46.39.34.16.16.32.32.48.48,0,.11.01.23.02.34.05-.05.11-.1.16-.16.22.38.45.75.65,1.14.13.25.23.51.34.77.03.08.09.16.08.24-.03.46-.04.92-.13,1.37-.1.53-.2,1.09-.43,1.57-.92,1.92-1.88,3.82-2.84,5.72-.34.69-.72,1.36-1.08,2.05.37.29.69.54,1.02.79.12.09.24.18.36.27.6.63,1.23,1.23,1.78,1.9,1.02,1.24,1.72,2.68,2.27,4.18.08.21.21.41.32.61.03.05.11.1.11.15.1,1.73.48,3.45.33,5.2-.05.51.03,1.05-.08,1.54-.14.62-.43,1.2-.63,1.81-.07.22-.07.46-.1.68-.06.06-.12.13-.18.19-.32.54-.59,1.11-.98,1.6-.2.26-.61.35-.92.52-.1.03-.19.06-.29.1h-.77c-.11-.06-.21-.12-.32-.18-.54-.26-1.03-.66-1.07-1.24-.03-.36-.14-.61-.35-.9.07-.04.15-.06.17-.11.5-1.27.99-2.54,1.48-3.81.02-.04.02-.11,0-.14-.3-.43-.02-.89-.09-1.33-.04-.27-.14-.54-.14-.81,0-.51.04-1.02.04-1.53,0-.1-.07-.2-.12-.29-.11-.2-.25-.39-.34-.6-.14-.33-.2-.69-.37-.99-.43-.73-.9-1.44-1.36-2.15-.05-.07-.1-.13-.14-.2-.05-.04-.1-.07-.14-.11-.61-.54-1.22-1.08-1.83-1.63-.04-.02-.07-.05-.11-.07-1.76-.9-3.53-1.8-5.32-2.72-.09.18-.16.32-.23.46-.55,1.1-1.1,2.2-1.66,3.3-1.68,3.3-3.33,6.61-5.05,9.88-.73,1.39-1.33,2.84-2.24,4.15-.34.49-.7.79-1.2,1.02h-.86c-.06-.13-.1-.34-.18-.36-.56-.14-.88-.5-1.09-1.02-.03-.08-.23-.1-.34-.15-.29-.71.13-1.36.37-1.92.78-1.8,1.74-3.53,2.64-5.28.8-1.57,1.6-3.14,2.4-4.71.5-.98.99-1.97,1.49-2.95.16-.32.32-.63.47-.95.14-.26.29-.51.42-.78.52-1.02,1.04-2.04,1.57-3.07.17-.35.33-.7.5-1.04.66-1.28,1.33-2.56,1.99-3.84.13-.28.27-.57.4-.85.2-.37.39-.74.59-1.11.45-.84.89-1.69,1.34-2.53.12,0,.33.03.36-.02.24-.52.47-1.05.67-1.59.03-.07-.12-.2-.18-.31-.09.09-.19.18-.28.27-.3-.03-.61-.11-.91-.07-1.12.15-2.3-.16-3.36.46-.04.02-.09,0-.14,0-.08-.05-.17-.1-.25-.15,0,.08-.02.17-.02.25-.08.09-.13.23-.23.27-.59.27-1.19.53-1.79.79-.03.03-.06.06-.1.08-.03,0-.06.02-.1.03l-.1.07c-.09.07-.19.15-.28.22-.03.02-.05.05-.08.07-.44.45-.87.9-1.31,1.34-.05.06-.09.13-.14.19-.23.35-.47.7-.7,1.05-.05.13-.11.26-.16.38-.03.02-.07.04-.1.06l-.03-.07s-.02.06-.03.08c-.3.51-.67.93-1.27,1.08-.1.07-.19.13-.29.2-.7.02-1.37-.11-1.92-.58-.09-.13-.17-.26-.26-.39l-.22-.28c-.12-.13-.24-.26-.35-.39-.07-.09-.15-.19-.22-.28-.12-.13-.24-.26-.35-.39-.1-.13-.21-.26-.31-.39-.09-.09-.17-.19-.26-.28-.1-.13-.21-.26-.31-.39-.09-.09-.17-.19-.26-.28-.07-.09-.15-.19-.22-.28-.15-.16-.3-.33-.45-.49-.04-.06-.09-.12-.13-.18-.12-.1-.25-.2-.37-.29-.03-.07-.03-.16-.08-.21-.35-.36-.71-.72-1.07-1.08,0-.05,0-.1-.01-.16-.1-.45-.45-.69-.85-.58-.29-.17-.58-.33-.87-.5-.04-.37-.69-.9-1.04-.82-.08.02-.14.11-.2.17-.29-.06-.58-.13-.87-.19-.05.09-.15.19-.13.26.09.29.2.58.35.85.06.11.23.16.35.23.14.38.27.76.41,1.14-.21.38.11.64.22.94.07.19.25.33.38.49.15.38.3.77.45,1.15-.21.38.11.64.22.94.07.19.25.33.38.49.21.54.43,1.09.64,1.63-.13.42.08.87.46.97,0,.06.01.12.02.18-.16.3-.11.49.27.49,0,.06.01.12.02.18-.16.3-.11.49.27.49.04.09.08.18.12.28-.02.22-.28.53.2.58.03.06.06.12.09.19-.16.3-.11.49.27.49,0,.06.01.12.02.18-.19.32-.05.42.27.39,0,.09.01.19.02.28-.02.12-.09.26-.05.35.17.47.35.93.55,1.38.02.06.17.06.27.08.54.09.06.47.19.67-.16.46-.03.83.36,1.06.2.61.39,1.22.59,1.83.1.29.26.57.31.87.08.44.07.9.13,1.35.15,1.17.47,2.32.42,3.51-.01.25-.17.57-.07.73.35.55.02.95-.2,1.39-.17.35-.33.7-.5,1.05-.54.98-1.07,1.97-1.61,2.95q-.71-.33-1.38-1.23c-.03-.1-.05-.19-.08-.29-.03-1.27-.06-2.53-.1-3.8,0-.09-.03-.19-.03-.28-.08-1.03-.16-2.07-.24-3.1-.07-.13-.13-.26-.2-.39-.07-.35-.14-.7-.21-1.05-.02-.07-.05-.13-.07-.2-.07-.32-.14-.64-.22-.95-.02-.07-.05-.13-.07-.2-.07-.22-.14-.45-.21-.67.09-.13.3-.32.26-.39-.17-.34-.02-.91-.64-.94-.09-.12-.18-.24-.28-.39-1.21,0-2.47,0-3.73,0-.06.03-.12.06-.17.1.05.07.11.13.16.2.01.08.03.16.04.23-.08.2-.27.45.18.43.06.26.12.51.18.77-.06.06-.12.11-.18.17l.28.21c.04.13.07.26.11.38.06.19.13.38.19.57.05.32.1.64.16.96-.36.23-.12.3.1.38.03.03.06.07.09.1.01.06.03.12.04.18,0,.06-.01.13-.02.19-.06.05-.12.11-.18.16.09.07.17.15.26.22.13.67.27,1.34.4,2.01-.06.06-.12.11-.18.17.09.07.18.14.27.22.09.64.18,1.28.28,1.92-.36.23-.12.3.1.38,0,.1.01.19.02.29-.06.05-.12.11-.18.16.09.07.17.15.26.22.07.42.13.83.2,1.25,0,.06.02.12.03.19.05.48.09.96.14,1.44-.08.05-.16.11-.24.16.09.08.17.15.26.23.07.61.15,1.21.22,1.82,0,.06,0,.13,0,.19-.07.27-.13.53-.2.8-.3-.09-.31-.07-.28.42-.11.12-.23.23-.34.35-.49-.03-.5-.02-.42.28-.11.06-.21.12-.32.17h-1.53s0-.06,0-.09c0-.1,0-.2,0-.29.03-.41-.16-.61-.57-.57-.06,0-.11,0-.17,0-.11-.49-.25-.97-.31-1.47-.15-1.2-.26-2.41-.39-3.61,0-.09.02-.19.03-.28.08-.05.16-.11.24-.16-.12-.08-.24-.15-.36-.23-.18-.97-.37-1.94-.53-2.92-.04-.27-.02-.55-.02-.82.07-.09.22-.2.2-.25-.09-.23.06-.65-.42-.61-.02-.17-.05-.33-.07-.5-.05-.06-.1-.11-.15-.17.02-.1.03-.19.05-.29.08-.05.16-.09.24-.14-.09-.08-.18-.16-.27-.25-.07-.06-.14-.12-.21-.18-.05-.35-.11-.7-.16-1.05.08-.07.16-.13.25-.2-.11-.06-.22-.13-.33-.19-.17-.67-.35-1.33-.52-2,0-.04,0-.08,0-.12.02-.04.05-.08.07-.12-.06-.08-.12-.17-.18-.25-.06-.16-.12-.31-.19-.47,0-.04,0-.08,0-.12,0-.06,0-.12,0-.18-.03-.06-.06-.13-.1-.19-.16-.44-.32-.89-.47-1.33,0-.04,0-.08,0-.12,0-.06,0-.12,0-.18.06-.04.11-.08.17-.12-.09-.09-.18-.17-.27-.26-.15-.38-.31-.76-.46-1.15,0-.04,0-.08,0-.12.02-.04.05-.08.07-.12-.06-.08-.12-.17-.18-.25-.16-.48-.32-.95-.47-1.43,0-.04,0-.08,0-.12,0-.08,0-.17,0-.25-.05-.19.11-.5-.28-.49Z"/>
  <path class="cls-2" d="m49.91,10.86c-.06.08-.16.16-.18.25-.3,1.13-1.02,1.9-2.03,2.46-1.58.88-3.04.42-4.4-.45-.76-.49-1.01-1.41-1.34-2.23-.25-.63-.09-1.26.03-1.87.26-1.32,1.15-2.17,2.3-2.73.99-.48,2.04-.4,3.08-.05.7.24,1.28.64,1.72,1.21.28.36.43.84.63,1.27.08.17.13.34.2.51v1.63Z"/>
  <path class="cls-2" d="m21.45,48.91c-.56-.35-1.15-.67-1.4-1.36-.02-.06-.02-.12-.03-.18.12.05.31.07.34.15.2.52.52.88,1.09,1.02.09.02.12.24.18.36h-.19Z"/>
  <path class="cls-2" d="m13.05,48.62c.02.09.04.19.06.28h-.67c.11-.06.21-.12.32-.17.1-.04.19-.07.29-.11Z"/>
  <path class="cls-1" d="m43.68,48.91c.1-.03.19-.06.29-.1,0,.03,0,.06,0,.1-.1,0-.19,0-.29,0Z"/>
  <path class="cls-2" d="m2,5.03C1.81,2.95,3.82.91,5.94.99c1.09.04,2.09.32,2.84,1.14.43.47.94,1.01,1.06,1.6.3,1.46.18,2.92-.98,4.07-.81.81-1.82,1.21-2.95,1.25-2.24.06-4.05-2.17-3.91-4Z"/>
  <path class="cls-2" d="m20.59,15.17c-.11.03-.27.13-.32.09-.26-.22-.51-.47-.73-.73-.04-.04.07-.21.11-.32.32.32.63.64.95.96Z"/>
  <path class="cls-1" d="m39.84,13.86s0,.04-.01.04c-.35.23-1.38-.25-1.42-.66.16.04.32.09.47.13.13.09.25.18.38.27l.58.22Z"/>
  <path class="cls-2" d="m5.54,10.85c-.08.49-.57.82-.97.66.32-.22.65-.44.97-.66Z"/>
  <path class="cls-2" d="m3.04,13.25c.2.47.06.75-.45.87.15-.29.3-.58.45-.87Z"/>
  <path class="cls-1" d="m27.68,13.75c-.11.48-.29.58-.92.54.31-.18.62-.36.92-.54Z"/>
  <path class="cls-2" d="m8.63,37.6c.48-.04.32.38.42.61.02.05-.13.17-.2.25-.07-.29-.14-.58-.21-.86Z"/>
  <path class="cls-2" d="m16.37,11.91c-.47.19-.74.04-.87-.45.29.15.58.3.87.45Z"/>
  <path class="cls-2" d="m14.26,10.97s-.04.09-.05.13c-.27-.21-.74,0-.9-.44.16,0,.31,0,.47,0,.03,0,.06,0,.09,0,.13.1.27.2.4.3Z"/>
  <path class="cls-2" d="m10.34,47.95c.42-.03.6.16.57.57-.1-.03-.2-.06-.3-.09-.09-.1-.18-.21-.27-.31,0-.06,0-.11,0-.17Z"/>
  <path class="cls-2" d="m13.04,10.6c-.35.27-.67.15-.79-.29.26.1.53.19.79.29Z"/>
  <path class="cls-1" d="m26.14,14.58c-.12.18-.22.37-.36.52-.03.03-.2-.06-.3-.09.22-.14.44-.28.66-.43Z"/>
  <path class="cls-2" d="m17.23,12.39c-.41.23-.48-.01-.48-.34.32-.11.34.21.48.34Z"/>
  <path class="cls-1" d="m24.31,15.93c.34.1.23.26.02.36-.12.06-.28.02-.42.02.13-.13.27-.25.4-.38Z"/>
  <path class="cls-2" d="m3.63,12.39c.01.13.02.25.03.38-.11,0-.21,0-.32.01.09-.13.19-.26.28-.39Z"/>
  <path class="cls-2" d="m7.98,34.63c.11.06.22.13.33.19-.08.07-.16.13-.25.2-.03-.13-.05-.26-.08-.39Z"/>
  <path class="cls-1" d="m37.35,12.98c-.1.06-.21.15-.31.15-.06,0-.11-.16-.17-.25.16.03.32.06.48.1Z"/>
  <path class="cls-2" d="m8.42,36.25c.09.08.18.16.27.25-.08.05-.16.09-.24.14-.03-.13-.06-.26-.09-.39,0,0,.03,0,.03,0h.03Z"/>
  <path class="cls-2" d="m15.03,11.25c-.07.06-.14.11-.21.17-.06-.11-.12-.23-.17-.34.13.06.26.11.38.17Z"/>
  <path class="cls-2" d="m9.39,42.2c.12.08.24.15.36.23-.08.05-.16.11-.24.16-.04-.13-.08-.26-.12-.38Z"/>
  <path class="cls-1" d="m42.91,15.45c-.35.23-.46.06-.48-.28.16.09.32.19.48.28Z"/>
  <path class="cls-1" d="m24.88,15.46c.05.05.1.11.16.16-.14.01-.29.02-.43.04.09-.07.18-.13.27-.2Z"/>
  <path class="cls-1" d="m43.39,15.83c-.33.12-.35.11-.39-.34.13.11.26.23.39.34Z"/>
  <path class="cls-2" d="m5.16,25.25c.39,0,.23.3.28.49-.07-.1-.14-.21-.2-.31-.02-.03-.05-.07-.07-.1,0-.03,0-.05,0-.08Z"/>
  <path class="cls-1" d="m44.07,16.5l-.16.16c0-.11-.01-.23-.02-.34.06.06.12.12.19.18Z"/>
  <path class="cls-2" d="m11.1,10.2c-.18.24-.24.23-.38-.1.13.03.26.06.38.1Z"/>
  <path class="cls-2" d="m6.48,29.17c.09.09.18.17.27.26-.06.04-.11.08-.17.12-.03-.13-.07-.25-.1-.38Z"/>
  <path class="cls-1" d="m42.03,30.41c-.12-.09-.24-.18-.36-.27.22-.09.29-.04.36.27Z"/>
  <path class="cls-2" d="m10.61,48.43c.1.03.2.06.3.09,0,.1,0,.2,0,.29-.1-.13-.2-.26-.3-.38Z"/>
  <path class="cls-1" d="m39.27,13.64c-.13-.09-.25-.18-.38-.27.13.09.25.18.38.27Z"/>
  <path class="cls-2" d="m7.08,10.02c-.09.09-.19.18-.28.27.09-.09.19-.18.28-.27Z"/>
  <path class="cls-1" d="m45.86,46.69c.06-.06.12-.13.18-.19-.06.06-.12.13-.18.19Z"/>
  <path class="cls-2" d="m3.13,20.66l.16-.06s-.04.09-.06.13c-.03,0-.06,0-.08,0,0-.02-.01-.05-.02-.07Z"/>
  <path class="cls-2" d="m7.07,31.18c.03.06.06.13.1.19-.03-.06-.06-.13-.1-.19Z"/>
  <path class="cls-2" d="m17.81,12.68c-.06-.05-.13-.1-.19-.16.06.05.13.1.19.16Z"/>
  <path class="cls-2" d="m5.92,27.54c.06.08.12.17.18.25-.06-.08-.12-.17-.18-.25Z"/>
  <path class="cls-2" d="m7.35,32.14c.06.08.12.17.18.25-.06-.08-.12-.17-.18-.25Z"/>
  <path class="cls-2" d="m4.76,24.4s.09-.05.14-.07c.01.07.02.14.04.2-.06-.04-.12-.09-.18-.13Z"/>
  <path class="cls-2" d="m2.46,19.13c.05-.02.11-.04.16-.06-.02.04-.04.09-.06.13-.03,0-.06,0-.08,0,0-.02-.01-.05-.02-.07Z"/>
  <path class="cls-2" d="m4.47,23.73c.05-.02.11-.04.16-.07-.02.05-.04.09-.06.14-.03,0-.06,0-.08,0,0-.02-.01-.05-.02-.07Z"/>
  <path class="cls-2" d="m4.09,22.87c.05-.02.11-.04.16-.06-.02.05-.04.09-.06.14-.03-.02-.07-.05-.1-.07Z"/>
  <path class="cls-2" d="m3.8,22.2c.05-.02.11-.04.16-.07-.02.05-.04.09-.06.14-.03,0-.06,0-.08,0,0-.02-.01-.05-.02-.07Z"/>
  <path class="cls-2" d="m10.34,47.95c0,.06,0,.11,0,.17-.06-.06-.11-.12-.17-.17.06,0,.11,0,.17,0Z"/>
  <path class="cls-2" d="m8.42,36.25h-.03s-.03,0-.03,0c-.05-.06-.1-.12-.15-.18.07.06.14.12.21.18Z"/>
  <path class="cls-2" d="m8.41,36.93c.05.06.1.11.15.17-.05-.06-.1-.11-.15-.17Z"/>
  <path class="cls-2" d="m7.46,32.51s0,.08,0,.12c0-.04,0-.08,0-.12Z"/>
  <path class="cls-2" d="m7.17,31.55s0,.08,0,.12c0-.04,0-.08,0-.12Z"/>
  <path class="cls-2" d="m13.86,10.67s-.06,0-.09,0c.02-.02.04-.05.06-.07.01.02.02.05.04.07Z"/>
  <path class="cls-2" d="m6.59,29.73s0,.08,0,.12c0-.04,0-.08,0-.12Z"/>
  <path class="cls-2" d="m6.02,27.91s0,.08,0,.12c0-.04,0-.08,0-.12Z"/>
  <path class="cls-2" d="m5.44,25.99s0,.08,0,.12c0-.04,0-.08,0-.12Z"/>
  <path class="cls-2" d="m5.16,25.32s.05.07.07.1c-.02-.03-.05-.07-.07-.1Z"/>
  <path class="cls-2" d="m4.49,23.8s.06,0,.08,0c0,.03,0,.06,0,.09-.03-.03-.05-.06-.08-.09Z"/>
  <path class="cls-2" d="m3.82,22.27s.06,0,.08,0c0,.03,0,.06,0,.09-.03-.03-.05-.06-.08-.09Z"/>
  <path class="cls-2" d="m3.15,20.73s.06,0,.08,0c0,.03,0,.06,0,.09-.03-.03-.05-.06-.08-.09Z"/>
  <path class="cls-2" d="m2.48,19.2s.06,0,.08,0c0,.03,0,.06,0,.09-.03-.03-.05-.06-.08-.09Z"/>
  <path class="cls-1" d="m34.21,18.34c0-.06,0-.11,0-.17.19-.39.38-.78.57-1.17.21-.11.18-.21-.01-.31.09-.09.19-.18.28-.27.06.1.21.24.18.31-.2.54-.42,1.07-.67,1.59-.02.05-.23.02-.36.02Z"/>
  <path class="cls-2" d="m18,27.62c.18.29.36.58.54.87-.03.02-.07.04-.1.06.04.01.08.02.12.04,0,0,0,0,0,0,.03.06.07.13.1.19.03.22.07.44.1.66-.09-.03-.24-.03-.27-.08-.2-.45-.39-.92-.55-1.38-.04-.1.03-.24.05-.35Z"/>
  <path class="cls-2" d="m14.84,15.63c-.42-.22-.83-.43-1.25-.65.07-.06.13-.16.2-.17.35-.08,1.01.45,1.04.82Z"/>
  <path class="cls-2" d="m15.59,32.71c-.13-.44-.25-.89-.38-1.33.62.03.47.6.64.94.04.07-.17.26-.26.39Z"/>
  <path class="cls-2" d="m12.73,14.79c.19.45.37.89.56,1.34-.12-.08-.29-.12-.35-.23-.15-.27-.25-.56-.35-.85-.02-.07.09-.17.13-.26Z"/>
  <path class="cls-2" d="m13.69,17.27c.2.48.4.96.6,1.44-.13-.16-.32-.31-.38-.49-.11-.3-.43-.57-.22-.94Z"/>
  <path class="cls-2" d="m14.75,19.86c.2.48.4.96.6,1.44-.13-.16-.32-.31-.38-.49-.11-.3-.43-.57-.22-.94Z"/>
  <path class="cls-1" d="m26.92,32.52c-.09-.02-.17-.03-.29-.05.14-.26.24-.51.39-.72.07-.1.24-.12.37-.17-.16.32-.32.63-.47.95Z"/>
  <path class="cls-1" d="m29.38,27.73s-.09-.02-.09-.03c.07-.28.11-.58.22-.84.04-.09.24-.12.37-.17-.17.35-.33.7-.5,1.04Z"/>
  <path class="cls-2" d="m20.51,40.86c.08.03.21.05.22.1.05.25-.45.9-.72.96.17-.35.33-.7.5-1.05Z"/>
  <path class="cls-1" d="m31.88,22.84c-.34-.14-.14-.36-.05-.52.09-.16.09-.51.45-.33-.13.28-.27.57-.4.85Z"/>
  <path class="cls-2" d="m18.96,30.11c.12.35.24.71.36,1.06-.4-.23-.52-.6-.36-1.06Z"/>
  <path class="cls-2" d="m15.88,16.33c-.06-.07-.11-.13-.17-.2.4-.11.75.13.85.58-.1,0-.19,0-.29,0-.06-.07-.13-.15-.19-.22-.07-.05-.14-.11-.2-.16Z"/>
  <path class="cls-2" d="m15.99,22.92c.15.32.31.65.46.97-.38-.1-.59-.54-.46-.97Z"/>
  <path class="cls-2" d="m17.14,25.51c.46.06.08.41.2.58-.48-.05-.21-.36-.2-.58Z"/>
  <path class="cls-2" d="m16.47,24.07c.09.16.18.33.27.49-.38,0-.43-.19-.27-.49Z"/>
  <path class="cls-2" d="m16.76,24.75c.09.16.18.33.27.49-.38,0-.43-.19-.27-.49Z"/>
  <path class="cls-2" d="m11.79,33.48c.36.13.42.32.19.57-.06-.19-.13-.38-.19-.57Z"/>
  <path class="cls-2" d="m17.43,26.28c.09.16.18.33.27.49-.38,0-.43-.19-.27-.49Z"/>
  <path class="cls-2" d="m18.67,19.11c-.15-.16-.3-.33-.45-.49.15.16.3.33.45.49Z"/>
  <path class="cls-2" d="m17.72,26.95c.09.13.18.26.27.39-.32.03-.45-.08-.27-.39Z"/>
  <path class="cls-2" d="m13.75,44.5c0,.13.01.26.02.38-.09-.08-.17-.15-.26-.23.08-.05.16-.11.24-.16Z"/>
  <path class="cls-2" d="m12.35,35.87c.03.13.05.26.08.38-.09-.07-.17-.15-.26-.22.06-.05.12-.11.18-.16Z"/>
  <path class="cls-1" d="m30.36,17.09c-.09.03-.18.07-.28.1,0-.08.02-.17.02-.25.08.05.17.1.25.15Z"/>
  <path class="cls-2" d="m16.57,36.16c-.38.03-.23-.21-.2-.39.07.13.13.26.2.39Z"/>
  <path class="cls-2" d="m18.09,18.44c-.12-.1-.25-.2-.37-.29.12.1.25.2.37.29Z"/>
  <path class="cls-2" d="m13.8,47.69c-.09.14-.19.28-.28.42-.03-.49-.02-.5.28-.42Z"/>
  <path class="cls-2" d="m12.83,38.27c.03.13.06.26.09.38-.09-.07-.18-.14-.27-.22.06-.06.12-.11.18-.17Z"/>
  <path class="cls-2" d="m13.31,41.24c.03.13.05.26.08.38-.09-.07-.17-.15-.26-.22.06-.05.12-.11.18-.16Z"/>
  <path class="cls-2" d="m13.05,48.62c-.1.04-.19.07-.29.11-.09-.3-.07-.31.42-.28-.04.06-.08.12-.13.17Z"/>
  <path class="cls-2" d="m11.58,32.71c.03.13.07.26.1.38-.09-.07-.18-.14-.28-.21.06-.06.12-.11.18-.17Z"/>
  <path class="cls-2" d="m12.14,35.01c.03.13.07.26.1.38-.22-.08-.46-.15-.1-.38Z"/>
  <path class="cls-2" d="m13.19,40.57c.03.13.06.26.1.38-.22-.08-.46-.16-.1-.38Z"/>
  <path class="cls-2" d="m20.97,21.79c-.12-.13-.24-.26-.35-.39.12.13.24.26.35.39Z"/>
  <path class="cls-2" d="m20.39,21.12c-.12-.13-.24-.26-.35-.39.12.13.24.26.35.39Z"/>
  <path class="cls-2" d="m11.22,31.51c.06.14.12.29.18.43-.44.01-.26-.23-.18-.43Z"/>
  <path class="cls-2" d="m21.45,22.46c-.09-.13-.17-.26-.26-.39.09.13.17.26.26.39Z"/>
  <path class="cls-2" d="m16.27,16.71c.1,0,.19,0,.29,0,0,.05,0,.1.01.16-.1-.05-.2-.1-.3-.15Z"/>
  <path class="cls-2" d="m19.73,20.34c-.09-.09-.17-.19-.26-.28.09.09.17.19.26.28Z"/>
  <path class="cls-2" d="m19.15,19.67c-.09-.09-.17-.19-.26-.28.09.09.17.19.26.28Z"/>
  <path class="cls-1" d="m25.25,21.31c-.05.13-.11.26-.16.38.05-.13.11-.26.16-.38Z"/>
  <path class="cls-1" d="m23.66,22.84c-.1.07-.19.13-.29.2.1-.07.19-.13.29-.2Z"/>
  <path class="cls-2" d="m17.03,43.63c-.03-.1-.05-.19-.08-.29.03.1.05.19.08.29Z"/>
  <path class="cls-2" d="m11.19,31.18s0,.06,0,.09c-.05-.07-.11-.13-.16-.2.06.04.11.07.17.11Z"/>
  <path class="cls-2" d="m13.58,42.87c.05.03.11.07.16.1-.04.03-.09.06-.13.09,0-.06-.02-.12-.03-.19Z"/>
  <path class="cls-2" d="m13.99,46.7s.09.06.14.09c-.04.03-.09.07-.13.1,0-.06,0-.13,0-.19Z"/>
  <path class="cls-1" d="m26.09,20.06c-.05.06-.09.13-.14.19.05-.06.09-.13.14-.19Z"/>
  <path class="cls-2" d="m15.88,33.57c-.02-.07-.05-.13-.07-.2.02.07.05.13.07.2Z"/>
  <path class="cls-2" d="m16.16,34.72c-.02-.07-.05-.13-.07-.2.02.07.05.13.07.2Z"/>
  <path class="cls-1" d="m40.42,34.82c-.05-.07-.1-.13-.14-.2.05.07.1.13.14.2Z"/>
  <path class="cls-2" d="m12.33,35.5c.06.03.11.06.17.09-.04.03-.09.06-.13.09-.01-.06-.03-.12-.04-.18Z"/>
  <path class="cls-2" d="m11.19,31.18c-.06-.04-.11-.07-.17-.11.06-.03.12-.06.17-.1,0,.07,0,.13,0,.2Z"/>
  <path class="cls-1" d="m38.31,32.88s-.07-.05-.11-.07c.04.02.07.05.11.07Z"/>
  <path class="cls-1" d="m24.99,21.75s-.04.01-.06.01c.01-.03.02-.05.03-.08l.03.07Z"/>
  <path class="cls-1" d="m27.48,18.64s-.05.05-.08.07c.03-.02.05-.05.08-.07Z"/>
  <path class="cls-1" d="m27.86,18.36s-.07.05-.1.07c.03-.02.07-.05.1-.07Z"/>
  <path class="cls-1" d="m28.06,18.25s-.06.06-.1.08c.03-.03.06-.06.1-.08Z"/>
  <path class="cls-1" d="m34.78,17c-.19.39-.38.78-.57,1.17-.23-.31.1-.98.57-1.17Z"/>
  <path class="cls-2" d="m15.88,16.33c.07.05.14.11.2.16-.07-.05-.14-.11-.2-.16Z"/>
  <path class="cls-2" d="m18.67,28.78c-.03-.06-.07-.13-.1-.19.03.06.07.13.1.19Z"/>
  <path class="cls-2" d="m18.57,28.59s-.08-.02-.12-.04c.03-.02.07-.04.1-.06,0,.03.02.07.02.1Z"/>
</svg>