<?xml version="1.0" encoding="UTF-8"?>
<svg id="Layer_1" data-name="Layer 1" xmlns="http://www.w3.org/2000/svg" viewBox="0 0 54.84 44.16">
  <defs>
    <style>
      .cls-1 {
        fill: #502813;
      }
    </style>
  </defs>
  <g id="Layer_2" data-name="Layer 2">
    <g id="Icons">
      <path class="cls-1" d="m14.59,33.77c-.5,0-.9.2-1.2.5l-5.5,5.5c-.7.7-.7,1.8,0,2.5.7.7,1.8.7,2.5,0l5.5-5.5c.7-.7.7-1.8,0-2.5-.4-.3-.8-.5-1.3-.5Z"/>
      <path class="cls-1" d="m27.59,33.77c-.5,0-.9.2-1.2.5l-5.5,5.5c-.7.7-.7,1.8,0,2.5s1.8.7,2.5,0l5.5-5.5c.7-.7.7-1.8,0-2.5-.3-.3-.8-.5-1.3-.5Z"/>
      <path class="cls-1" d="m40.59,33.77c-.5,0-.9.2-1.2.5l-5.5,5.5c-.7.7-.7,1.8,0,2.5s1.8.7,2.5,0l5.5-5.5c.7-.7.7-1.8,0-2.5-.3-.3-.8-.5-1.3-.5Z"/>
      <path class="cls-1" d="m42.39,11.77c-1.1,0-2.2.2-3.2.6h0c-1-6.3-7-10.5-13.2-9.4-5.5.9-9.5,5.6-9.6,11.2-3.1-1.1-6.5.5-7.7,3.6-.3.9-.4,2-.2,3h-.6c-2.5,0-4.5,2-4.5,4.5s2,4.5,4.5,4.5h34.5c4.3,0,8-3,8.8-7.2.1-.6.2-1.2.2-1.8,0-5-4-9-9-9h0Z"/>
    </g>
  </g>
</svg>