<?xml version="1.0" encoding="UTF-8"?>
<svg id="Layer_1" data-name="Layer 1" xmlns="http://www.w3.org/2000/svg" viewBox="0 0 48 48">
  <defs>
    <style>
      .cls-1 {
        fill: #502813;
      }
    </style>
  </defs>
  <g id="Layer_2" data-name="Layer 2">
    <g id="Icons">
      <path class="cls-1" d="m26,0v48h22V0h-22Zm13,42c0,1.1-.9,2-2,2s-2-.9-2-2v-6c0-1.1.9-2,2-2s2,.9,2,2v6Zm0-15c0,1.1-.9,2-2,2s-2-.9-2-2v-6c0-1.1.9-2,2-2s2,.9,2,2v6Zm0-15c0,1.1-.9,2-2,2s-2-.9-2-2v-6c0-1.1.9-2,2-2s2,.9,2,2v6Z"/>
      <path class="cls-1" d="m0,32c4.7,0,9,3.3,9,8v8h6v-8c0-4.7,4.3-8,9-8v-8H0v8Z"/>
    </g>
  </g>
</svg>